<svg width="24" height="25" viewBox="0 0 24 25" fill="none" xmlns="http://www.w3.org/2000/svg">
<path d="M17.4 14.7248C15.9089 14.7248 14.7 15.9336 14.7 17.4248C14.7 18.916 15.9089 20.1248 17.4 20.1248C18.8912 20.1248 20.1 18.916 20.1 17.4248C20.1 15.9336 18.8912 14.7248 17.4 14.7248ZM17.4 14.7248V8.4248C17.4 7.94742 17.2104 7.48958 16.8728 7.15201C16.5353 6.81445 16.0774 6.6248 15.6 6.6248H12.9M6.60002 9.3248V20.1248M6.60002 9.3248C8.09119 9.3248 9.30002 8.11597 9.30002 6.6248C9.30002 5.13364 8.09119 3.9248 6.60002 3.9248C5.10886 3.9248 3.90002 5.13364 3.90002 6.6248C3.90002 8.11597 5.10886 9.3248 6.60002 9.3248Z" stroke="#0D0D12" stroke-width="2" stroke-linecap="round" stroke-linejoin="round"/>
</svg>
