<svg width="28" height="29" viewBox="0 0 28 29" fill="none" xmlns="http://www.w3.org/2000/svg">
<path fill-rule="evenodd" clip-rule="evenodd" d="M14.4432 2.57023C14.1508 2.50979 13.8492 2.50979 13.5568 2.57023C13.2188 2.64008 12.9167 2.81012 12.6766 2.9453L12.6111 2.98205L4.47141 7.52637C4.44891 7.53894 4.42572 7.55177 4.40196 7.56492C4.14772 7.70564 3.82806 7.88258 3.58258 8.15028C3.37034 8.38172 3.20972 8.65604 3.11147 8.95488C2.99782 9.30053 2.99915 9.66727 3.00021 9.95895C3.00031 9.98621 3.00041 10.0128 3.00041 10.0387V19.0111C3.00041 19.037 3.00031 19.0636 3.00021 19.0909C2.99915 19.3825 2.99782 19.7493 3.11147 20.0949C3.20972 20.3938 3.37034 20.6681 3.58258 20.8995C3.82806 21.1672 4.14773 21.3442 4.40196 21.4849C4.42572 21.498 4.44891 21.5109 4.47141 21.5234L12.6111 26.0678L12.6766 26.1045C12.9168 26.2397 13.2188 26.4097 13.5568 26.4796C13.8492 26.54 14.1508 26.54 14.4432 26.4796C14.7812 26.4097 15.0833 26.2397 15.3234 26.1045L15.3889 26.0678L23.5286 21.5234C23.5385 21.5179 23.5486 21.5123 23.5588 21.5066C23.5717 21.4995 23.5848 21.4922 23.598 21.4849C23.8523 21.3442 24.1719 21.1672 24.4174 20.8995C24.6297 20.6681 24.7903 20.3938 24.8885 20.0949C25.0022 19.7493 25.0008 19.3825 24.9998 19.0909C24.9997 19.0636 24.9996 19.037 24.9996 19.0111V10.0387C24.9996 10.0128 24.9997 9.98621 24.9998 9.95895C25.0008 9.66727 25.0022 9.30053 24.8885 8.95487C24.7903 8.65604 24.6297 8.38172 24.4174 8.15028C24.1719 7.88258 23.8523 7.70564 23.598 7.56491L23.5971 7.56442C23.5737 7.55144 23.5508 7.53877 23.5286 7.52637L15.3889 2.98205L15.3234 2.9453C15.0833 2.81012 14.7812 2.64008 14.4432 2.57023ZM13.6795 4.91459C13.8462 4.82153 13.9313 4.77451 13.9947 4.74374L14 4.74121L14.0053 4.74374C14.0687 4.77451 14.1538 4.82153 14.3205 4.91459L21.6346 8.998L14 13.2604L6.36533 8.99802L13.6795 4.91459ZM5.20032 10.8766L12.9 15.1753L12.9 23.7001L5.53979 19.5909C5.36385 19.4927 5.27402 19.442 5.211 19.4016L5.20567 19.3982L5.20528 19.3919C5.20078 19.3169 5.20032 19.2134 5.20032 19.0111V10.8766Z" fill="white"/>
</svg>
