<svg width="20" height="21" viewBox="0 0 20 21" fill="none" xmlns="http://www.w3.org/2000/svg">
<g clip-path="url(#clip0_6445_727)">
<path d="M10 20.5249C15.5228 20.5249 20 16.0478 20 10.5249C20 5.00205 15.5228 0.524902 10 0.524902C4.47715 0.524902 0 5.00205 0 10.5249C0 16.0478 4.47715 20.5249 10 20.5249Z" fill="#F0F0F0"/>
<path d="M9.56519 10.5247H20C20 9.62215 19.8796 8.74777 19.6555 7.91602H9.56519V10.5247Z" fill="#D80027"/>
<path d="M9.56519 5.30744H18.5322C17.9201 4.30853 17.1374 3.42561 16.2248 2.69873H9.56519V5.30744Z" fill="#D80027"/>
<path d="M9.99999 20.525C12.3535 20.525 14.5166 19.7115 16.2248 18.3511H3.77515C5.48335 19.7115 7.64651 20.525 9.99999 20.525Z" fill="#D80027"/>
<path d="M1.46772 15.742H18.5323C19.0237 14.9401 19.4048 14.0635 19.6555 13.1333H0.344482C0.595146 14.0635 0.976279 14.9401 1.46772 15.742Z" fill="#D80027"/>
<path d="M4.63219 2.08654H5.54348L4.69582 2.70236L5.01961 3.69881L4.17199 3.08299L3.32437 3.69881L3.60406 2.83799C2.85773 3.45967 2.20359 4.18803 1.66453 4.99959H1.95652L1.41695 5.39158C1.33289 5.53182 1.25227 5.67428 1.175 5.81885L1.43266 6.61186L0.951953 6.2626C0.832461 6.51576 0.723164 6.77463 0.624922 7.03889L0.908789 7.91264H1.95652L1.10887 8.52846L1.43266 9.5249L0.585039 8.90908L0.0773047 9.27799C0.0264844 9.6865 0 10.1026 0 10.5249H10C10 5.00209 10 4.351 10 0.524902C8.02453 0.524902 6.18301 1.09795 4.63219 2.08654ZM5.01961 9.5249L4.17199 8.90908L3.32437 9.5249L3.64816 8.52846L2.80051 7.91264H3.84824L4.17199 6.91619L4.49574 7.91264H5.54348L4.69582 8.52846L5.01961 9.5249ZM4.69582 5.61541L5.01961 6.61186L4.17199 5.99604L3.32437 6.61186L3.64816 5.61541L2.80051 4.99959H3.84824L4.17199 4.00314L4.49574 4.99959H5.54348L4.69582 5.61541ZM8.60656 9.5249L7.75895 8.90908L6.91133 9.5249L7.23512 8.52846L6.38746 7.91264H7.4352L7.75895 6.91619L8.0827 7.91264H9.13043L8.28277 8.52846L8.60656 9.5249ZM8.28277 5.61541L8.60656 6.61186L7.75895 5.99604L6.91133 6.61186L7.23512 5.61541L6.38746 4.99959H7.4352L7.75895 4.00314L8.0827 4.99959H9.13043L8.28277 5.61541ZM8.28277 2.70236L8.60656 3.69881L7.75895 3.08299L6.91133 3.69881L7.23512 2.70236L6.38746 2.08654H7.4352L7.75895 1.0901L8.0827 2.08654H9.13043L8.28277 2.70236Z" fill="#0052B4"/>
</g>
<defs>
<clipPath id="clip0_6445_727">
<rect width="20" height="20" fill="white" transform="translate(0 0.524902)"/>
</clipPath>
</defs>
</svg>
